<svg xmlns="http://www.w3.org/2000/svg" id="steering-wheel" width="22.026" height="22.026" viewBox="0 0 22.026 22.026">
    <defs>
        <style>
            .cls-1{fill:#f04935}
        </style>
    </defs>
    <g id="Group_59" transform="translate(8.81 9.912)">
        <g id="Group_58">
            <path id="Path_4" d="M194.2 216a2.2 2.2 0 1 0 2.2 2.2 2.2 2.2 0 0 0-2.2-2.2zm0 3.671a1.468 1.468 0 1 1 1.468-1.468 1.47 1.47 0 0 1-1.468 1.468z" class="cls-1" transform="translate(-192 -216)"/>
        </g>
    </g>
    <g id="Group_61">
        <g id="Group_60">
            <path id="Path_5" d="M11.013 0a11.013 11.013 0 1 0 11.013 11.013A11.025 11.025 0 0 0 11.013 0zm0 21.291a10.279 10.279 0 1 1 10.278-10.278 10.29 10.29 0 0 1-10.278 10.278z" class="cls-1"/>
        </g>
    </g>
    <g id="Group_63" transform="translate(2.203 2.203)">
        <g id="Group_62">
            <path id="Path_6" d="M56.81 48a8.81 8.81 0 1 0 8.81 8.81A8.82 8.82 0 0 0 56.81 48zm0 .734a8.088 8.088 0 0 1 7.536 5.177l-2.75.917a3.966 3.966 0 0 1-2.873-.139 4.715 4.715 0 0 0-3.826 0l-.139.062a3.986 3.986 0 0 1-2.639.209l-2.941-.784a8.089 8.089 0 0 1 7.632-5.442zm-8.076 8.076c0-.075 0-.149.006-.223l.255.085a9.787 9.787 0 0 1 6.634 8.128 8.088 8.088 0 0 1-6.895-7.99zm8.076 8.076c-.146 0-.291 0-.434-.012a10.519 10.519 0 0 0-7.149-8.9l-.432-.144a8.028 8.028 0 0 1 .174-.953l2.961.79a4.722 4.722 0 0 0 3.126-.247l.139-.062a3.979 3.979 0 0 1 3.23 0 4.7 4.7 0 0 0 3.4.164l2.75-.917a8.014 8.014 0 0 1 .247 1.225l-.432.144a10.519 10.519 0 0 0-7.149 8.9c-.141.008-.285.012-.431.012zm1.181-.087a9.787 9.787 0 0 1 6.634-8.127l.255-.085c0 .074.006.148.006.223a8.088 8.088 0 0 1-6.895 7.99z" class="cls-1" transform="translate(-48 -48)"/>
        </g>
    </g>
</svg>
